<svg xmlns="http://www.w3.org/2000/svg" viewBox="0 0 572.76 688.25"><defs><style>.cls-1{fill:#009a9d;}</style></defs><g id="Слой_2" data-name="Слой 2"><g id="Layer_1" data-name="Layer 1"><path class="cls-1" d="M286.38,115c11,0,22,.58,32.93,1.64V97a12.5,12.5,0,0,0-12.45-12.46h-41A12.5,12.5,0,0,0,253.44,97v19.56C264.36,115.53,275.35,115,286.38,115Z"/><path class="cls-1" d="M373.49,513.07,348.6,579H224.17l-24.89-65.92A243.46,243.46,0,0,1,82.56,418.25H32.25A284.36,284.36,0,0,0,165.1,545.82l18.31,48.56,10.64,28.17H378.74l10.6-28.17,18.34-48.56A284.63,284.63,0,0,0,540.51,418.25H490.2A243.48,243.48,0,0,1,373.49,513.07Z"/><path class="cls-1" d="M286.38,43.56a242.48,242.48,0,0,1,203.84,111h50.24C492.68,62.8,396.76,0,286.38,0S80.06,62.8,32.28,154.52H82.53A242.53,242.53,0,0,1,286.38,43.56Z"/><path class="cls-1" d="M286.38,127.38a319.31,319.31,0,0,0-170.77,49.27V396.14a320.56,320.56,0,0,0,341.53,0V176.65A319.28,319.28,0,0,0,286.38,127.38Zm0,284.49A125.48,125.48,0,1,1,411.86,286.39,125.49,125.49,0,0,1,286.38,411.87Z"/><path class="cls-1" d="M286.38,457.85a328.27,328.27,0,0,0,32.93-1.68v19.56a12.49,12.49,0,0,1-12.45,12.47h-41a12.49,12.49,0,0,1-12.45-12.47V456.17A328.62,328.62,0,0,0,286.38,457.85Z"/><rect class="cls-1" x="275.11" y="174.59" width="22.54" height="29.86"/><rect class="cls-1" x="174.59" y="275.11" width="29.86" height="22.56"/><rect class="cls-1" x="275.11" y="368.33" width="22.54" height="29.84"/><rect class="cls-1" x="368.31" y="275.11" width="29.87" height="22.56"/><path class="cls-1" d="M550.87,176.65h-71.6V396.14h71.67a286.47,286.47,0,0,0-.07-219.49ZM526,307.88a21.5,21.5,0,1,1,21.52-21.49A21.48,21.48,0,0,1,526,307.88Z"/><path class="cls-1" d="M69.78,176.65H21.89a286.47,286.47,0,0,0-.07,219.49H93.49V176.65Zm-23,131.23a21.5,21.5,0,1,1,21.5-21.49A21.49,21.49,0,0,1,46.74,307.88Z"/><path class="cls-1" d="M344.81,286.39l-38.49-10.53a22.85,22.85,0,0,0-8.35-8.8l-11.59-55.43-11.59,55.43a22.55,22.55,0,1,0,31.53,29.86Z"/><polygon class="cls-1" points="353.93 688.25 370.37 644.68 202.38 644.68 218.84 688.25 353.93 688.25"/></g></g></svg>